<svg xmlns="http://www.w3.org/2000/svg" viewBox="0 0 487.56 487.56"><defs><style>.cls-1{fill:#3c3c3b;}</style></defs><title>header_logo</title><g id="Слой_5" data-name="Слой 5"><path class="cls-1" d="M220.63,135.08c-26-12.71-58.24-10.24-84.24,7.41-4,2.72-7,1-7-4.29V113.44c0-5.3,3-11.54,7-13.44,26-12.71,58.24-10.25,84.24,7.41,4,2.71,7,7.85,7,11v14.86C227.64,136.39,224.6,137,220.63,135.08Z"/><path class="cls-1" d="M220.63,199.71c-26-12.71-58.24-10.25-84.24,7.4-4,2.72-7,1-7-4.28V178.06c0-5.29,3-11.54,7-13.44,26-12.71,58.24-10.24,84.24,7.41,4,2.72,7,7.86,7,11v14.86C227.64,201,224.6,201.61,220.63,199.71Z"/><path class="cls-1" d="M294.87,16.11s9.5,65.7-61.9,65.7c0,0,45.78-51.13,0-51.13Z"/><path class="cls-1" d="M454.78,316.72c-15-48.67-69.79-88.22-120.71-88.22H86.88a18.33,18.33,0,0,1-18.33-18.33v-161a18.51,18.51,0,0,1,18.5-18.51H278.87c8.39,0,15.64-6.44,16-14.83A15.54,15.54,0,0,0,279.36-.39H68.55V-.85H44.61A18.11,18.11,0,0,0,26.5,17.27v452A18.11,18.11,0,0,0,44.61,487.4H76v-8.16a3.35,3.35,0,0,1,3.35-3.35H97a3.35,3.35,0,0,1,3.35,3.35v8.16h60.17v-8.16a3.35,3.35,0,0,1,3.35-3.35H181.5a3.35,3.35,0,0,1,3.35,3.35v8.16H245v-8.16a3.35,3.35,0,0,1,3.35-3.35H266a3.35,3.35,0,0,1,3.35,3.35v8.16H329.3v-7.95a3.35,3.35,0,0,1,3.35-3.35h17.66a3.35,3.35,0,0,1,3.35,3.35v6.13C427.27,473,479.7,397.68,454.78,316.72ZM414.13,387c-12.74,32.44-44.54,53.37-79.39,53.37H119.47c-9.52,0-15.07-8.88-17.23-17.23L64.59,279.25C62.79,264,72.3,262,81.82,262H332C392.75,262,439.34,322.87,414.13,387Z"/></g></svg>