<svg id="Слой_3" data-name="Слой 3" xmlns="http://www.w3.org/2000/svg" viewBox="0 0 1280 566.93"><defs><style>.cls-1{fill:#009adf;}.cls-2{fill:none;stroke:#fff;stroke-miterlimit:10;stroke-width:1.81px;}.cls-3{fill:#fff;}</style></defs><title>baxhmachok-text</title><path class="cls-1" d="M307.89,312.13c-7.61-24.3-35.15-44-60.62-44H122.94a9.22,9.22,0,0,1-9.22-9.22v-81A9.31,9.31,0,0,1,123,168.6h96.42a8,8,0,0,0,8.11-7.34,7.82,7.82,0,0,0-7.81-8.29h-106v-.23h-12a9.11,9.11,0,0,0-9.11,9.11V389.21a9.11,9.11,0,0,0,9.11,9.11H247.29C289.4,397.64,321.78,356.51,307.89,312.13Zm-20.21,35.35a43,43,0,0,1-40.25,27.18h-125a8.67,8.67,0,0,1-8.66-8.67V293.62a8.66,8.66,0,0,1,8.66-8.66H246.21C276.69,285,300.06,315.35,287.68,347.48Z"/><path class="cls-1" d="M186.53,224.35a36.72,36.72,0,0,0-28.34,2.45C154,229,151,227.37,151,222h0c0-5.32,3-11.64,7.21-12.94a36.77,36.77,0,0,1,28.34,2.46c4.18,2.19,7.21,7.41,7.21,10.48h0C193.74,225.12,190.71,225.65,186.53,224.35Z"/><path class="cls-2" d="M186.53,224.35a36.72,36.72,0,0,0-28.34,2.45C154,229,151,227.37,151,222h0c0-5.32,3-11.64,7.21-12.94a36.77,36.77,0,0,1,28.34,2.46c4.18,2.19,7.21,7.41,7.21,10.48h0C193.74,225.12,190.71,225.65,186.53,224.35Z"/><path class="cls-1" d="M186.53,252.47a36.76,36.76,0,0,0-28.34,2.46c-4.19,2.19-7.22.57-7.21-4.79h0c0-5.32,3-11.64,7.21-12.94a36.77,36.77,0,0,1,28.34,2.46c4.18,2.19,7.21,7.4,7.21,10.48h0C193.74,253.25,190.71,253.77,186.53,252.47Z"/><path class="cls-2" d="M186.53,252.47a36.76,36.76,0,0,0-28.34,2.46c-4.19,2.19-7.22.57-7.21-4.79h0c0-5.32,3-11.64,7.21-12.94a36.77,36.77,0,0,1,28.34,2.46c4.18,2.19,7.21,7.4,7.21,10.48h0C193.74,253.25,190.71,253.77,186.53,252.47Z"/><path class="cls-1" d="M227.56,161.26s4.78,33.05-31.14,33.05c0,0,23-25.72,0-25.72Z"/><path class="cls-3" d="M120.79,392.53h5.56a3.35,3.35,0,0,1,3.35,3.35v2.95a0,0,0,0,1,0,0H117.44a0,0,0,0,1,0,0v-2.95A3.35,3.35,0,0,1,120.79,392.53Z"/><path class="cls-3" d="M163.31,392.53h5.56a3.35,3.35,0,0,1,3.35,3.35v2.65a0,0,0,0,1,0,0H160a0,0,0,0,1,0,0v-2.65A3.35,3.35,0,0,1,163.31,392.53Z"/><path class="cls-3" d="M205.83,392.53h5.56a3.35,3.35,0,0,1,3.35,3.35v2.65a0,0,0,0,1,0,0H202.48a0,0,0,0,1,0,0v-2.65A3.35,3.35,0,0,1,205.83,392.53Z"/><path class="cls-3" d="M248.22,392.64h5.56a3.35,3.35,0,0,1,3.35,3.35v2.66a0,0,0,0,1,0,0H244.87a0,0,0,0,1,0,0V396A3.35,3.35,0,0,1,248.22,392.64Z"/><path class="cls-1" d="M437,355.15h-8.82V333.89a70.24,70.24,0,0,1-5.59,7.12q-15.78,17.12-38.13,17.12t-38-17.12q-15.8-17.11-15.79-41.24t15.79-41.35q15.78-17.12,38-17.12t38.13,17.12a70.24,70.24,0,0,1,5.59,7.12V250.76H437Zm-8.82-45.92V290.31a47.79,47.79,0,0,0-12.25-24.66q-13.05-14.14-31.47-14.14T353,265.65q-13,14.13-13,34.12t13,34.07q13,14.09,31.47,14.08t31.47-14.14A47.76,47.76,0,0,0,428.17,309.23Z"/><path class="cls-1" d="M466.71,250.76h8.92v94.72h42.84V250.76h8.92v94.72h42.94V250.76h8.82V355H466.71Z"/><path class="cls-1" d="M648.57,340.9l36-90.14H694V355.15h-8.83V274.36l-32.25,80.79h-8.72l-32.35-80.79v80.79h-8.72V250.76h9.41Z"/><path class="cls-1" d="M826.41,355.15h-8.82V333.89A71.69,71.69,0,0,1,812,341q-15.78,17.12-38.13,17.12t-38-17.12q-15.78-17.11-15.78-41.24t15.78-41.35q15.78-17.12,38-17.12T812,258.42a71.69,71.69,0,0,1,5.59,7.12V250.76h8.82Zm-8.82-45.92V290.31a47.81,47.81,0,0,0-12.26-24.66q-13-14.14-31.46-14.14T742.4,265.65q-13,14.13-13,34.12t13,34.07q13,14.09,31.47,14.08t31.46-14.14A47.78,47.78,0,0,0,817.59,309.23Z"/><path class="cls-1" d="M944.45,268.84V250h8.83V355.15h-8.83V295.62a36.81,36.81,0,0,1-5,6.27Q925.83,316.67,903,316.67t-35.88-14.78Q854,287.34,854,256.08V250h9.61l-.1,7q0,25.4,11.08,38.58,10.68,12.66,27.84,12.65h1.67q18.33-.63,29.4-13.29A42.54,42.54,0,0,0,944.45,268.84Z"/><path class="cls-1" d="M1031,241.3q22.35,0,38.08,17.12t15.74,41.35q0,24.12-15.74,41.24T1031,358.13q-22.26,0-38-17.12t-15.79-41.24q0-24.24,15.79-41.35T1031,241.3Zm-31.47,24.35q-13,14.13-13,34.12t13,34.07q13,14.09,31.47,14.08t31.47-14.08q13-14.08,13-34.07t-13-34.12q-13.05-14.14-31.47-14.14T999.56,265.65Z"/><path class="cls-1" d="M1167.79,250.76l-23.72,31.89,37.74,72.5H1171l-32.74-64.84-19.61,23.6v41.24h-8.92V250.76h8.92V298.6l37.74-47.84Z"/></svg>